<?xml version="1.0" encoding="UTF-8" standalone="no"?>
<!-- Generator: Adobe Illustrator 16.0.0, SVG Export Plug-In . SVG Version: 6.00 Build 0)  -->

<svg
   xmlns:dc="http://purl.org/dc/elements/1.1/"
   xmlns:cc="http://creativecommons.org/ns#"
   xmlns:rdf="http://www.w3.org/1999/02/22-rdf-syntax-ns#"
   xmlns:svg="http://www.w3.org/2000/svg"
   xmlns="http://www.w3.org/2000/svg"
   xmlns:sodipodi="http://sodipodi.sourceforge.net/DTD/sodipodi-0.dtd"
   xmlns:inkscape="http://www.inkscape.org/namespaces/inkscape"
   version="1.1"
   id="svg2"
   inkscape:version="0.48.4 r9939"
   sodipodi:docname="Home.svg"
   x="0px"
   y="0px"
   width="100"
   height="100"
   viewBox="12.5 18.511 100 100"
   enable-background="new 12.5 18.511 100 87.978"
   xml:space="preserve"
   inkscape:export-filename="C:\Users\Erik\Pictures\Home.png"
   inkscape:export-xdpi="43"
   inkscape:export-ydpi="43"><metadata
   id="metadata8"><rdf:RDF><cc:Work
       rdf:about=""><dc:format>image/svg+xml</dc:format><dc:type
         rdf:resource="http://purl.org/dc/dcmitype/StillImage" /><dc:title></dc:title></cc:Work></rdf:RDF></metadata><defs
   id="defs6" /><sodipodi:namedview
   pagecolor="#ffffff"
   bordercolor="#666666"
   borderopacity="1"
   objecttolerance="10"
   gridtolerance="10"
   guidetolerance="10"
   inkscape:pageopacity="0"
   inkscape:pageshadow="2"
   inkscape:window-width="1600"
   inkscape:window-height="877"
   id="namedview4"
   showgrid="false"
   inkscape:zoom="6.9"
   inkscape:cx="50"
   inkscape:cy="50"
   inkscape:window-x="-8"
   inkscape:window-y="-8"
   inkscape:window-maximized="1"
   inkscape:current-layer="svg2" />
<path
   id="path4520-9"
   inkscape:original="M -97 1117.625 L -147 1167.625 L -134.5 1167.625 L -134.5 1205.125 L -121.34375 1205.125 L -103.25 1205.125 L -90.75 1205.125 L -72.1875 1205.125 L -59.5 1205.125 L -59.5 1167.625 L -47 1167.625 L -59.75 1154.875 L -59.75 1137.375 L -68 1137.375 L -68 1146.625 L -97 1117.625 z "
   sodipodi:type="inkscape:offset"
   inkscape:radius="1.9445436"
   d="m -97.21875,1115.6875 a 1.9447381,1.9447381 0 0 0 -1.15625,0.5625 l -50,50 a 1.9447381,1.9447381 0 0 0 1.375,3.3125 l 10.5625,0 0,35.5625 a 1.9447381,1.9447381 0 0 0 1.9375,1.9375 l 13.15625,0 18.09375,0 12.5,0 18.5625,0 12.6875,0 a 1.9447381,1.9447381 0 0 0 1.9375,-1.9375 l 0,-35.5625 10.5625,0 a 1.9447381,1.9447381 0 0 0 1.375,-3.3125 l -12.1875,-12.1875 0,-16.6875 a 1.9447381,1.9447381 0 0 0 -1.9375,-1.9375 l -8.25,0 a 1.9447381,1.9447381 0 0 0 -1.9375,1.9375 l 0,4.5625 -25.6875,-25.6875 a 1.9447381,1.9447381 0 0 0 -1.59375,-0.5625 z"
   style="stroke:#000000;stroke-opacity:1;fill:none;stroke-width:2.14044090000000020;stroke-miterlimit:4;stroke-dasharray:none;fill-opacity:1"
   transform="matrix(0.9378469,0,0,0.93093972,153.70693,-1013.4738)" />
</svg>